<svg id="visual" viewBox="0 0 900 450" width="900" height="450" xmlns="http://www.w3.org/2000/svg" xmlns:xlink="http://www.w3.org/1999/xlink" version="1.1"><rect x="0" y="0" width="900" height="450" fill="#ece9e2"></rect><path d="M0 221L13.7 222.3C27.3 223.7 54.7 226.3 82 218.5C109.3 210.7 136.7 192.3 163.8 194.5C191 196.7 218 219.3 245.2 220.8C272.3 222.3 299.7 202.7 327 187.8C354.3 173 381.7 163 409 158C436.3 153 463.7 153 491 160.7C518.3 168.3 545.7 183.7 573 199.3C600.3 215 627.7 231 654.8 242C682 253 709 259 736.2 256.3C763.3 253.7 790.7 242.3 818 224.7C845.3 207 872.7 183 886.3 171L900 159L900 451L886.3 451C872.7 451 845.3 451 818 451C790.7 451 763.3 451 736.2 451C709 451 682 451 654.8 451C627.7 451 600.3 451 573 451C545.7 451 518.3 451 491 451C463.7 451 436.3 451 409 451C381.7 451 354.3 451 327 451C299.7 451 272.3 451 245.2 451C218 451 191 451 163.8 451C136.7 451 109.3 451 82 451C54.7 451 27.3 451 13.7 451L0 451Z" fill="#d0acec"></path><path d="M0 286L13.7 281C27.3 276 54.7 266 82 258.3C109.3 250.7 136.7 245.3 163.8 240.7C191 236 218 232 245.2 229.2C272.3 226.3 299.7 224.7 327 221.5C354.3 218.3 381.7 213.7 409 227.7C436.3 241.7 463.7 274.3 491 280C518.3 285.7 545.7 264.3 573 246.8C600.3 229.3 627.7 215.7 654.8 221.8C682 228 709 254 736.2 269C763.3 284 790.7 288 818 285.8C845.3 283.7 872.7 275.3 886.3 271.2L900 267L900 451L886.3 451C872.7 451 845.3 451 818 451C790.7 451 763.3 451 736.2 451C709 451 682 451 654.8 451C627.7 451 600.3 451 573 451C545.7 451 518.3 451 491 451C463.7 451 436.3 451 409 451C381.7 451 354.3 451 327 451C299.7 451 272.3 451 245.2 451C218 451 191 451 163.8 451C136.7 451 109.3 451 82 451C54.7 451 27.3 451 13.7 451L0 451Z" fill="#b592d1"></path><path d="M0 257L13.7 264.7C27.3 272.3 54.7 287.7 82 282.8C109.3 278 136.7 253 163.8 255.5C191 258 218 288 245.2 304.3C272.3 320.7 299.7 323.3 327 308.8C354.3 294.3 381.7 262.7 409 251.8C436.3 241 463.7 251 491 261.3C518.3 271.7 545.7 282.3 573 285.3C600.3 288.3 627.7 283.7 654.8 279.8C682 276 709 273 736.2 273.3C763.3 273.7 790.7 277.3 818 282.2C845.3 287 872.7 293 886.3 296L900 299L900 451L886.3 451C872.7 451 845.3 451 818 451C790.7 451 763.3 451 736.2 451C709 451 682 451 654.8 451C627.7 451 600.3 451 573 451C545.7 451 518.3 451 491 451C463.7 451 436.3 451 409 451C381.7 451 354.3 451 327 451C299.7 451 272.3 451 245.2 451C218 451 191 451 163.8 451C136.7 451 109.3 451 82 451C54.7 451 27.3 451 13.7 451L0 451Z" fill="#9a7ab6"></path><path d="M0 339L13.7 325.2C27.3 311.3 54.7 283.7 82 269.7C109.3 255.7 136.7 255.3 163.8 263.2C191 271 218 287 245.2 288.3C272.3 289.7 299.7 276.3 327 274C354.3 271.7 381.7 280.3 409 285.2C436.3 290 463.7 291 491 294.5C518.3 298 545.7 304 573 301.3C600.3 298.7 627.7 287.3 654.8 282.7C682 278 709 280 736.2 278.2C763.3 276.3 790.7 270.7 818 268.7C845.3 266.7 872.7 268.3 886.3 269.2L900 270L900 451L886.3 451C872.7 451 845.3 451 818 451C790.7 451 763.3 451 736.2 451C709 451 682 451 654.8 451C627.7 451 600.3 451 573 451C545.7 451 518.3 451 491 451C463.7 451 436.3 451 409 451C381.7 451 354.3 451 327 451C299.7 451 272.3 451 245.2 451C218 451 191 451 163.8 451C136.7 451 109.3 451 82 451C54.7 451 27.3 451 13.7 451L0 451Z" fill="#80629c"></path><path d="M0 310L13.7 306.2C27.3 302.3 54.7 294.7 82 291C109.3 287.3 136.7 287.7 163.8 298.7C191 309.7 218 331.3 245.2 336.3C272.3 341.3 299.7 329.7 327 330C354.3 330.3 381.7 342.7 409 341C436.3 339.3 463.7 323.7 491 315.3C518.3 307 545.7 306 573 309.8C600.3 313.7 627.7 322.3 654.8 333.2C682 344 709 357 736.2 356.7C763.3 356.3 790.7 342.7 818 336.8C845.3 331 872.7 333 886.3 334L900 335L900 451L886.3 451C872.7 451 845.3 451 818 451C790.7 451 763.3 451 736.2 451C709 451 682 451 654.8 451C627.7 451 600.3 451 573 451C545.7 451 518.3 451 491 451C463.7 451 436.3 451 409 451C381.7 451 354.3 451 327 451C299.7 451 272.3 451 245.2 451C218 451 191 451 163.8 451C136.7 451 109.3 451 82 451C54.7 451 27.3 451 13.7 451L0 451Z" fill="#674b82"></path><path d="M0 393L13.7 382.3C27.3 371.7 54.7 350.3 82 348.7C109.3 347 136.7 365 163.8 374C191 383 218 383 245.2 383C272.3 383 299.7 383 327 373.3C354.3 363.7 381.7 344.3 409 338.7C436.3 333 463.7 341 491 344C518.3 347 545.7 345 573 352.5C600.3 360 627.7 377 654.8 378C682 379 709 364 736.2 357.8C763.3 351.7 790.7 354.3 818 360C845.3 365.7 872.7 374.3 886.3 378.7L900 383L900 451L886.3 451C872.7 451 845.3 451 818 451C790.7 451 763.3 451 736.2 451C709 451 682 451 654.8 451C627.7 451 600.3 451 573 451C545.7 451 518.3 451 491 451C463.7 451 436.3 451 409 451C381.7 451 354.3 451 327 451C299.7 451 272.3 451 245.2 451C218 451 191 451 163.8 451C136.7 451 109.3 451 82 451C54.7 451 27.3 451 13.7 451L0 451Z" fill="#4e356a"></path><path d="M0 391L13.7 390.3C27.3 389.7 54.7 388.3 82 391.2C109.3 394 136.7 401 163.8 406.2C191 411.3 218 414.7 245.2 408.8C272.3 403 299.7 388 327 381.3C354.3 374.7 381.7 376.3 409 377C436.3 377.7 463.7 377.3 491 379.3C518.3 381.3 545.7 385.7 573 385C600.3 384.3 627.7 378.7 654.8 379.7C682 380.7 709 388.3 736.2 389C763.3 389.7 790.7 383.3 818 386C845.3 388.7 872.7 400.3 886.3 406.2L900 412L900 451L886.3 451C872.7 451 845.3 451 818 451C790.7 451 763.3 451 736.2 451C709 451 682 451 654.8 451C627.7 451 600.3 451 573 451C545.7 451 518.3 451 491 451C463.7 451 436.3 451 409 451C381.7 451 354.3 451 327 451C299.7 451 272.3 451 245.2 451C218 451 191 451 163.8 451C136.7 451 109.3 451 82 451C54.7 451 27.3 451 13.7 451L0 451Z" fill="#372053"></path><path d="M0 398L13.7 404.3C27.3 410.7 54.7 423.3 82 426.5C109.3 429.7 136.7 423.3 163.8 422.8C191 422.3 218 427.7 245.2 426C272.3 424.3 299.7 415.7 327 413C354.3 410.3 381.7 413.7 409 416.2C436.3 418.7 463.7 420.3 491 417.7C518.3 415 545.7 408 573 402.2C600.3 396.3 627.7 391.7 654.8 390.8C682 390 709 393 736.2 395.2C763.3 397.3 790.7 398.7 818 399.2C845.3 399.7 872.7 399.3 886.3 399.2L900 399L900 451L886.3 451C872.7 451 845.3 451 818 451C790.7 451 763.3 451 736.2 451C709 451 682 451 654.8 451C627.7 451 600.3 451 573 451C545.7 451 518.3 451 491 451C463.7 451 436.3 451 409 451C381.7 451 354.3 451 327 451C299.7 451 272.3 451 245.2 451C218 451 191 451 163.8 451C136.7 451 109.3 451 82 451C54.7 451 27.3 451 13.7 451L0 451Z" fill="#200c3c"></path></svg>