<svg id="visual" viewBox="0 0 900 600" width="900" height="600" xmlns="http://www.w3.org/2000/svg" xmlns:xlink="http://www.w3.org/1999/xlink" version="1.1"><rect x="0" y="0" width="900" height="600" fill="#ece9e2"></rect><path d="M0 272L13.7 266.7C27.3 261.3 54.7 250.7 82 258.3C109.3 266 136.7 292 163.8 318C191 344 218 370 245.2 355.7C272.3 341.3 299.7 286.7 327 261.7C354.3 236.7 381.7 241.3 409 255.3C436.3 269.3 463.7 292.7 491 305.2C518.3 317.7 545.7 319.3 573 321.7C600.3 324 627.7 327 654.8 339C682 351 709 372 736.2 370.3C763.3 368.7 790.7 344.3 818 328.3C845.3 312.3 872.7 304.7 886.3 300.8L900 297L900 0L886.3 0C872.7 0 845.3 0 818 0C790.7 0 763.3 0 736.2 0C709 0 682 0 654.8 0C627.7 0 600.3 0 573 0C545.7 0 518.3 0 491 0C463.7 0 436.3 0 409 0C381.7 0 354.3 0 327 0C299.7 0 272.3 0 245.2 0C218 0 191 0 163.8 0C136.7 0 109.3 0 82 0C54.7 0 27.3 0 13.7 0L0 0Z" fill="#d0acec"></path><path d="M0 253L13.7 253.3C27.3 253.7 54.7 254.3 82 246.2C109.3 238 136.7 221 163.8 218.3C191 215.7 218 227.3 245.2 242.8C272.3 258.3 299.7 277.7 327 280.2C354.3 282.7 381.7 268.3 409 273.3C436.3 278.3 463.7 302.7 491 313C518.3 323.3 545.7 319.7 573 303.2C600.3 286.7 627.7 257.3 654.8 236.3C682 215.3 709 202.7 736.2 219.5C763.3 236.3 790.7 282.7 818 288.2C845.3 293.7 872.7 258.3 886.3 240.7L900 223L900 0L886.3 0C872.7 0 845.3 0 818 0C790.7 0 763.3 0 736.2 0C709 0 682 0 654.8 0C627.7 0 600.3 0 573 0C545.7 0 518.3 0 491 0C463.7 0 436.3 0 409 0C381.7 0 354.3 0 327 0C299.7 0 272.3 0 245.2 0C218 0 191 0 163.8 0C136.7 0 109.3 0 82 0C54.7 0 27.3 0 13.7 0L0 0Z" fill="#b592d1"></path><path d="M0 265L13.7 248.3C27.3 231.7 54.7 198.3 82 199.8C109.3 201.3 136.7 237.7 163.8 238C191 238.3 218 202.7 245.2 189.8C272.3 177 299.7 187 327 189.7C354.3 192.3 381.7 187.7 409 195.7C436.3 203.7 463.7 224.3 491 220.8C518.3 217.3 545.7 189.7 573 186.7C600.3 183.7 627.7 205.3 654.8 222C682 238.7 709 250.3 736.2 245.3C763.3 240.3 790.7 218.7 818 210.5C845.3 202.3 872.7 207.7 886.3 210.3L900 213L900 0L886.3 0C872.7 0 845.3 0 818 0C790.7 0 763.3 0 736.2 0C709 0 682 0 654.8 0C627.7 0 600.3 0 573 0C545.7 0 518.3 0 491 0C463.7 0 436.3 0 409 0C381.7 0 354.3 0 327 0C299.7 0 272.3 0 245.2 0C218 0 191 0 163.8 0C136.7 0 109.3 0 82 0C54.7 0 27.3 0 13.7 0L0 0Z" fill="#9a7ab6"></path><path d="M0 154L13.7 154.3C27.3 154.7 54.7 155.3 82 160.5C109.3 165.7 136.7 175.3 163.8 186.5C191 197.7 218 210.3 245.2 215.3C272.3 220.3 299.7 217.7 327 221.3C354.3 225 381.7 235 409 235.2C436.3 235.3 463.7 225.7 491 220.8C518.3 216 545.7 216 573 208.3C600.3 200.7 627.7 185.3 654.8 184C682 182.7 709 195.3 736.2 199.8C763.3 204.3 790.7 200.7 818 196.5C845.3 192.3 872.7 187.7 886.3 185.3L900 183L900 0L886.3 0C872.7 0 845.3 0 818 0C790.7 0 763.3 0 736.2 0C709 0 682 0 654.8 0C627.7 0 600.3 0 573 0C545.7 0 518.3 0 491 0C463.7 0 436.3 0 409 0C381.7 0 354.3 0 327 0C299.7 0 272.3 0 245.2 0C218 0 191 0 163.8 0C136.7 0 109.3 0 82 0C54.7 0 27.3 0 13.7 0L0 0Z" fill="#80629c"></path><path d="M0 104L13.7 105.2C27.3 106.3 54.7 108.7 82 125.3C109.3 142 136.7 173 163.8 181.8C191 190.7 218 177.3 245.2 173.2C272.3 169 299.7 174 327 168.5C354.3 163 381.7 147 409 148.7C436.3 150.3 463.7 169.7 491 177.3C518.3 185 545.7 181 573 180.5C600.3 180 627.7 183 654.8 174.3C682 165.7 709 145.3 736.2 140.2C763.3 135 790.7 145 818 141.5C845.3 138 872.7 121 886.3 112.5L900 104L900 0L886.3 0C872.7 0 845.3 0 818 0C790.7 0 763.3 0 736.2 0C709 0 682 0 654.8 0C627.7 0 600.3 0 573 0C545.7 0 518.3 0 491 0C463.7 0 436.3 0 409 0C381.7 0 354.3 0 327 0C299.7 0 272.3 0 245.2 0C218 0 191 0 163.8 0C136.7 0 109.3 0 82 0C54.7 0 27.3 0 13.7 0L0 0Z" fill="#674b82"></path><path d="M0 82L13.7 84.3C27.3 86.7 54.7 91.3 82 89.7C109.3 88 136.7 80 163.8 80C191 80 218 88 245.2 96.3C272.3 104.7 299.7 113.3 327 114.2C354.3 115 381.7 108 409 99.5C436.3 91 463.7 81 491 88.5C518.3 96 545.7 121 573 127C600.3 133 627.7 120 654.8 113.8C682 107.7 709 108.3 736.2 106.5C763.3 104.7 790.7 100.3 818 104.5C845.3 108.7 872.7 121.3 886.3 127.7L900 134L900 0L886.3 0C872.7 0 845.3 0 818 0C790.7 0 763.3 0 736.2 0C709 0 682 0 654.8 0C627.7 0 600.3 0 573 0C545.7 0 518.3 0 491 0C463.7 0 436.3 0 409 0C381.7 0 354.3 0 327 0C299.7 0 272.3 0 245.2 0C218 0 191 0 163.8 0C136.7 0 109.3 0 82 0C54.7 0 27.3 0 13.7 0L0 0Z" fill="#4e356a"></path><path d="M0 99L13.7 96.2C27.3 93.3 54.7 87.7 82 88.5C109.3 89.3 136.7 96.7 163.8 98.5C191 100.3 218 96.7 245.2 98.5C272.3 100.3 299.7 107.7 327 112.3C354.3 117 381.7 119 409 120.7C436.3 122.3 463.7 123.7 491 110.7C518.3 97.7 545.7 70.3 573 58C600.3 45.7 627.7 48.3 654.8 61.7C682 75 709 99 736.2 97C763.3 95 790.7 67 818 66.5C845.3 66 872.7 93 886.3 106.5L900 120L900 0L886.3 0C872.7 0 845.3 0 818 0C790.7 0 763.3 0 736.2 0C709 0 682 0 654.8 0C627.7 0 600.3 0 573 0C545.7 0 518.3 0 491 0C463.7 0 436.3 0 409 0C381.7 0 354.3 0 327 0C299.7 0 272.3 0 245.2 0C218 0 191 0 163.8 0C136.7 0 109.3 0 82 0C54.7 0 27.3 0 13.7 0L0 0Z" fill="#372053"></path><path d="M0 60L13.7 59.5C27.3 59 54.7 58 82 52.7C109.3 47.3 136.7 37.7 163.8 33.7C191 29.7 218 31.3 245.2 39.7C272.3 48 299.7 63 327 61.3C354.3 59.7 381.7 41.3 409 41.2C436.3 41 463.7 59 491 57.7C518.3 56.3 545.7 35.7 573 27.5C600.3 19.3 627.7 23.7 654.8 31.8C682 40 709 52 736.2 54.2C763.3 56.3 790.7 48.7 818 51.5C845.3 54.3 872.7 67.7 886.3 74.3L900 81L900 0L886.3 0C872.7 0 845.3 0 818 0C790.7 0 763.3 0 736.2 0C709 0 682 0 654.8 0C627.7 0 600.3 0 573 0C545.7 0 518.3 0 491 0C463.7 0 436.3 0 409 0C381.7 0 354.3 0 327 0C299.7 0 272.3 0 245.2 0C218 0 191 0 163.8 0C136.7 0 109.3 0 82 0C54.7 0 27.3 0 13.7 0L0 0Z" fill="#200c3c"></path></svg>